<?xml version="1.0" encoding="UTF-8"?>
<svg version="1.1" xmlns="http://www.w3.org/2000/svg" width="1667" height="1667">
<path d="M0 0 C0.88847626 0.00337372 1.77695251 0.00674744 2.69235229 0.01022339 C17.35714507 0.09046468 31.50245698 1.00804553 45.8125 4.4375 C46.78815918 4.66824219 47.76381836 4.89898438 48.76904297 5.13671875 C81.9189638 13.27219681 111.55307602 29.32542896 136.58203125 52.39453125 C138.63824126 54.27788998 140.74328226 56.07832631 142.875 57.875 C180.14584144 90.51499541 200.23469187 142.40809571 203.65576172 190.81054688 C206.81673403 243.78883671 189.19462666 296.73572187 154.05859375 336.58984375 C151.36553165 339.59347788 148.59643943 342.5179532 145.8125 345.4375 C144.97460938 346.33984375 144.13671875 347.2421875 143.2734375 348.171875 C124.4541394 367.84401138 90.74446496 393.82548491 62.625 395.0625 C55.20940321 394.75729746 49.48678058 392.79193875 43.97265625 387.7578125 C37.27368548 380.38730676 35.69106964 373.05383287 35.68119812 363.27798462 C35.67802455 362.2313304 35.67802455 362.2313304 35.67478687 361.16353166 C35.66882054 358.83768347 35.6697846 356.51189005 35.6706543 354.18603516 C35.6676206 352.51342172 35.66409856 350.8408091 35.66012573 349.16819763 C35.65225315 345.57184381 35.64709804 341.97549984 35.64383507 338.37913895 C35.63791155 332.68879429 35.621359 326.99851172 35.60249329 321.30819702 C35.59615641 319.35801891 35.58983078 317.40784076 35.58351612 315.45766258 C35.58035031 314.48120238 35.5771845 313.50474218 35.57392275 312.49869227 C35.53188427 299.25597501 35.49886565 286.0132874 35.48657227 272.77050781 C35.4781881 263.83053498 35.45568689 254.89071676 35.4172166 245.95082128 C35.39747334 241.22330236 35.38504576 236.49601447 35.39005089 231.76845169 C35.39470226 227.32120834 35.38086531 222.87440306 35.35303879 218.427248 C35.34613613 216.79870987 35.34599049 215.17012636 35.35323906 213.54158974 C35.39307594 203.58293426 35.20030221 196.37377749 28.3125 188.625 C21.75876174 182.89047902 16.40887023 180.91818567 7.62109375 181.1328125 C0.04804669 181.95436698 -4.77161965 185.40378249 -9.6796875 191.046875 C-14.20115298 198.21562338 -14.55290312 204.35129221 -14.18920898 212.59443665 C-14.13673665 214.25121383 -14.13673665 214.25121383 -14.08320427 215.94146127 C-14.00522269 218.35615706 -13.9200046 220.77062742 -13.82845497 223.18484688 C-13.6799493 227.1172565 -13.5498435 231.05002481 -13.42729187 234.98330688 C-13.4061292 235.66232115 -13.38496654 236.34133542 -13.36316258 237.04092588 C-13.31971323 238.43846058 -13.27637007 239.83599858 -13.23312938 241.23353975 C-13.16566366 243.39540923 -13.09623477 245.55720951 -13.02656651 247.71900904 C-12.68938994 258.30589986 -12.44574396 268.89270586 -12.25537109 279.48320007 C-12.24143625 280.25330089 -12.22750141 281.0234017 -12.2131443 281.8168389 C-12.08452813 288.97272866 -11.96262476 296.1287236 -11.84732819 303.28484023 C-11.76816583 308.19052093 -11.68580228 313.09613816 -11.60009766 318.00170898 C-11.57882435 319.22328077 -11.57882435 319.22328077 -11.55712128 320.46953078 C-11.35243658 331.91992544 -11.01233698 343.35955414 -10.56803846 354.80304371 C-9.80367463 374.50941545 -9.30238877 394.20341019 -9.3125 413.92578125 C-9.31229843 415.06577701 -9.31229843 415.06577701 -9.31209278 416.22880298 C-9.34329977 451.54692994 -10.0573579 484.35399215 -36.23583984 511.12651062 C-69.12022108 542.98092709 -69.12022108 542.98092709 -86.1875 542.8125 C-92.56293004 542.57173603 -96.97296681 540.66752593 -101.6636734 536.37495899 C-104.89521974 533.49935831 -108.2285243 530.85814548 -111.69551849 528.27156353 C-132.94044849 512.23725185 -157.02056205 493.23352614 -161.42386073 465.53115516 C-164.03527436 446.35603829 -163.34268263 426.79449451 -162.62674239 407.50972967 C-162.27400885 397.7395257 -162.21991134 387.97325868 -162.17589849 378.19760325 C-162.08949247 360.76882336 -161.77400835 343.3524355 -161.30957031 325.92993164 C-160.86048126 309.0665582 -160.53623029 292.20768739 -160.36621094 275.33911133 C-160.35563906 274.29366303 -160.34506717 273.24821472 -160.33417493 272.17108617 C-160.29210713 267.96733039 -160.25076612 263.76356835 -160.21041885 259.5597957 C-159.90018141 227.4676203 -159.48239105 195.37242472 -158.68600082 163.28831291 C-158.60347785 159.94247799 -158.53171383 156.59669981 -158.46989822 153.25041962 C-158.39803184 149.39806952 -158.30295924 145.54700967 -158.18914574 141.69567671 C-158.15170404 140.30493695 -158.12219294 138.91395561 -158.10153371 137.52286533 C-157.96178279 128.58878173 -157.09196855 122.33730116 -150.63991976 115.89139253 C-145.233227 111.12231831 -140.44027734 111.03568269 -133.4921875 111.08984375 C-127.40211904 111.73052471 -123.91742568 114.6165256 -119.8125 118.9375 C-116.91562298 123.39423388 -115.93710397 126.96946366 -115.96489334 132.27668667 C-115.96606163 133.45191244 -115.96722992 134.6271382 -115.96843362 135.83797687 C-115.97991803 137.12511257 -115.99140244 138.41224826 -116.00323486 139.73838806 C-116.00825787 141.1227804 -116.01235816 142.50717634 -116.01561522 143.89157397 C-116.02461223 146.9013164 -116.03996015 149.91093755 -116.06012917 152.92062569 C-116.09285452 157.81807159 -116.11167208 162.71551428 -116.12852478 167.61303711 C-116.15070921 173.8030349 -116.17627589 179.99300231 -116.20571139 186.18296988 C-116.2631134 198.35435469 -116.29094401 210.52565614 -116.30755615 222.69715881 C-116.31029728 224.61414669 -116.31304205 226.53113457 -116.31579041 228.44812244 C-116.32126362 232.3294339 -116.32657552 236.21074554 -116.33179808 240.09205735 C-116.345323 250.07057121 -116.36023977 260.04908132 -116.37841797 270.02758789 C-116.3802307 271.02892522 -116.38204344 272.03026254 -116.3839111 273.06194342 C-116.41461767 289.27367606 -116.48891208 305.4849546 -116.57756272 321.6964609 C-116.66744514 338.35088503 -116.70378413 355.00484258 -116.69243121 371.65950686 C-116.68724338 381.92598866 -116.7244155 392.19052278 -116.81652811 402.45660049 C-116.87585671 409.49980166 -116.88356493 416.54189419 -116.8513231 423.58526634 C-116.83429092 427.64492125 -116.83958233 431.70119329 -116.90683556 435.76040077 C-117.87408455 454.34143543 -117.87408455 454.34143543 -110.39502311 470.54205662 C-104.68475085 476.01110912 -99.1885304 479.21911434 -91.04296875 479.3515625 C-89.93566406 479.29742188 -88.82835937 479.24328125 -87.6875 479.1875 C-86.02654297 479.26871094 -86.02654297 479.26871094 -84.33203125 479.3515625 C-75.91101653 479.21463543 -70.78442884 475.75677038 -64.97783005 470.09903616 C-56.79792381 460.92426406 -58.33818053 449.15141854 -58.56982422 437.57641602 C-58.57046006 434.96817477 -58.5648644 432.35992574 -58.55354309 429.75170898 C-58.5386935 424.15640911 -58.57414285 418.56330037 -58.64434433 412.96844673 C-58.74559949 404.86350047 -58.76458602 396.759922 -58.76365043 388.65441822 C-58.76395418 375.47935077 -58.82355915 362.30527706 -58.92382812 349.13061523 C-59.02069674 336.3786988 -59.09972183 323.62695838 -59.14746094 310.87475586 C-59.15041368 310.08938722 -59.15336643 309.30401857 -59.15640865 308.49485088 C-59.18809614 299.90577826 -59.21367681 291.3166998 -59.23336983 282.72759151 C-59.23512245 281.97094705 -59.23687508 281.21430258 -59.23868082 280.4347295 C-59.24564264 277.40843162 -59.25259122 274.38213396 -59.25882258 271.35583448 C-59.27722343 262.52989598 -59.31408058 253.70449525 -59.38512154 244.87881541 C-59.43465426 238.68164316 -59.46554385 232.48451175 -59.49022484 226.2871933 C-59.50399729 223.75687958 -59.52476895 221.22659215 -59.55328178 218.6964016 C-59.83132476 193.54612432 -55.90860868 175.17673762 -38.13671875 156.25390625 C-24.60986361 143.18558857 -6.65334407 137.75999896 11.80004883 137.96435547 C27.96230785 138.57387905 42.6925958 144.7956329 54.8125 155.4375 C55.48925781 156.02015625 56.16601562 156.6028125 56.86328125 157.203125 C69.21390292 168.61845687 76.97812434 185.87737714 78.00902176 202.63133621 C78.09700353 206.32184057 78.12521914 210.00815296 78.13134766 213.69970703 C78.14066458 215.11003686 78.15083582 216.52036125 78.16178894 217.93067932 C78.18890441 221.72954134 78.20418306 225.52836667 78.21721697 229.32729959 C78.23292899 233.30848263 78.25969314 237.28959161 78.2852478 241.27072144 C78.33189351 248.79625342 78.36870603 256.32179956 78.40192068 263.8474015 C78.44024292 272.42067223 78.48962637 280.99386832 78.53990483 289.56707597 C78.64301317 307.1904959 78.73234167 324.81396148 78.8125 342.4375 C81.34562015 340.88388072 83.87488357 339.32449947 86.40234375 337.76171875 C87.11048218 337.3282312 87.81862061 336.89474365 88.54821777 336.44812012 C95.56496128 332.0976988 101.77395416 327.05487438 107.8125 321.4375 C108.72346436 320.59227783 108.72346436 320.59227783 109.65283203 319.72998047 C118.87045223 311.07684836 126.87988264 302.01676957 133.8125 291.4375 C134.24401367 290.78056152 134.67552734 290.12362305 135.12011719 289.44677734 C156.7471636 255.94178934 165.68039626 213.19664162 157.8515625 173.9140625 C150.6389703 141.57928038 135.58492074 114.34854177 112.8125 90.4375 C112.14734375 89.71949219 111.4821875 89.00148438 110.796875 88.26171875 C84.9311898 61.14622103 44.43897003 44.24254294 7.16796875 43.234375 C-6.22959774 43.06427813 -19.05648227 43.71055942 -32.1875 46.4375 C-33.35756592 46.67895752 -33.35756592 46.67895752 -34.55126953 46.92529297 C-49.89642396 50.23191805 -64.7872619 55.94181081 -78.3125 63.9375 C-84.3543961 67.35455972 -90.07654215 68.35236634 -96.890625 66.8359375 C-104.06765732 64.36480362 -108.25574382 60.38881946 -111.5625 53.625 C-112.92143301 46.69444165 -113.12880066 40.4748299 -109.484375 34.234375 C-97.84146899 18.10263775 -69.61354228 10.88843863 -51.5 6.0625 C-50.66017578 5.8361084 -49.82035156 5.6097168 -48.95507812 5.37646484 C-32.80226369 1.32608881 -16.60699434 -0.1237031 0 0 Z " fill="#FFFFFF" transform="translate(770.1875,600.5625)"/>
<path d="M0 0 C1.44625259 0.00273422 1.44625259 0.00273422 2.92172241 0.00552368 C26.06126491 0.0790099 47.95490506 2.70988543 70.4375 8.3125 C71.30793945 8.52745117 72.17837891 8.74240234 73.07519531 8.96386719 C111.77265345 18.72946488 147.81691236 37.84132049 178.4375 63.3125 C179.19401855 63.93366699 179.19401855 63.93366699 179.96582031 64.56738281 C193.7304258 75.89955653 206.45836809 88.24120616 217.4375 102.3125 C218.36268039 103.42844618 219.29128463 104.54155955 220.22265625 105.65234375 C228.25259919 115.30505348 235.02581493 125.52599114 241.4375 136.3125 C241.87835937 137.05371094 242.31921875 137.79492188 242.7734375 138.55859375 C279.93484901 201.73299332 290.19060572 278.66674714 272.41210938 349.68261719 C267.44973054 368.16474359 260.94298181 386.16240236 252.4375 403.3125 C252.06189941 404.08529297 251.68629883 404.85808594 251.29931641 405.65429688 C234.44068719 440.12716405 208.86691334 472.77927098 178.4375 496.3125 C177.34991892 497.18806651 176.26407257 498.06579085 175.1796875 498.9453125 C146.46706267 522.10891667 97.00296579 555.17142586 58.46875 552.6640625 C51.92219705 551.53100526 46.86123212 548.12488042 42.4375 543.3125 C38.55445532 537.17478422 38.50678154 530.41581356 39.4375 523.3125 C41.52367679 517.7404466 45.44976248 513.51853139 50.4375 510.3125 C53.79931261 508.89452876 57.24710562 507.8850259 60.75 506.875 C62.74007565 506.26723472 64.72965578 505.65784464 66.71875 505.046875 C67.69585938 504.75103516 68.67296875 504.45519531 69.6796875 504.15039062 C107.28858402 492.72389161 139.0844426 472.142377 167.4375 445.3125 C168.118125 444.67441406 168.79875 444.03632812 169.5 443.37890625 C174.62691313 438.43001094 179.01082602 432.8841292 183.4375 427.3125 C184.59572266 425.89710938 184.59572266 425.89710938 185.77734375 424.453125 C213.10393646 390.26166702 229.70574696 347.72358312 234.4375 304.3125 C234.54835938 303.34699219 234.65921875 302.38148438 234.7734375 301.38671875 C240.02328511 246.68898218 224.90491674 188.77817454 192.4375 144.3125 C192.03853516 143.76480957 191.63957031 143.21711914 191.22851562 142.65283203 C179.84524653 127.17726853 167.26135405 112.51462087 152.19921875 100.51953125 C150.40741323 99.08760746 148.63734587 97.62788272 146.89453125 96.13671875 C100.62525545 56.72733558 37.34122401 41.08511995 -22.34765625 45.78125 C-52.94709784 48.7403481 -82.52823497 58.25141551 -109.71191406 72.47387695 C-116.00126031 75.32399626 -122.29354775 75.0032904 -128.6875 72.75 C-134.47430559 70.23941665 -137.99064263 66.60850542 -140.69140625 60.9453125 C-142.87804183 54.33637806 -142.40913543 47.2834087 -139.625 40.9375 C-136.54170696 35.62409912 -132.95476377 33.1001455 -127.5625 30.3125 C-126.94665039 29.98958984 -126.33080078 29.66667969 -125.69628906 29.33398438 C-86.92052642 9.25793878 -43.47461184 -0.17122453 0 0 Z " fill="#FFFFFF" transform="translate(773.5625,523.6875)"/>
<path d="M0 0 C4.95 0 9.9 0 15 0 C19.28571429 9.57142857 19.28571429 9.57142857 21 14 C23.48830503 11.51169497 24.30825691 9.1322066 25.625 5.875 C26.800625 2.966875 26.800625 2.966875 28 0 C32.95 0 37.9 0 43 0 C43 11.22 43 22.44 43 34 C39.37 34 35.74 34 32 34 C31.67 28.72 31.34 23.44 31 18 C29.02 23.28 27.04 28.56 25 34 C23.02 34 21.04 34 19 34 C18.20443343 32.29347935 17.4137362 30.5846883 16.625 28.875 C16.18414063 27.92367187 15.74328125 26.97234375 15.2890625 25.9921875 C14.02628601 23.06101542 13.00927569 20.02782708 12 17 C11.67 22.61 11.34 28.22 11 34 C7.37 34 3.74 34 0 34 C0 22.78 0 11.56 0 0 Z " fill="#FFFFFF" transform="translate(1081,543)"/>
<path d="M0 0 C10.89 0 21.78 0 33 0 C33 2.64 33 5.28 33 8 C29.37 8 25.74 8 22 8 C22 16.58 22 25.16 22 34 C18.04 34 14.08 34 10 34 C10 25.42 10 16.84 10 8 C6.7 8 3.4 8 0 8 C0 5.36 0 2.72 0 0 Z " fill="#FFFFFF" transform="translate(1043,543)"/>
</svg>
